<svg xmlns="http://www.w3.org/2000/svg" width="128" height="128" viewBox="0 0 128 128" version="1.1"><path d="M 46.368 31.750 C 46.644 32.712, 47.819 36.763, 48.978 40.750 C 50.333 45.414, 51.598 48, 52.523 48 C 53.315 48, 54.227 46.942, 54.552 45.649 C 54.877 44.355, 54.376 40.643, 53.439 37.399 C 52.502 34.154, 51.232 31.169, 50.617 30.765 C 50.003 30.361, 48.682 30.024, 47.683 30.015 C 46.424 30.005, 46.020 30.538, 46.368 31.750 M 39.213 33.140 C 37.405 34.297, 35.267 36.516, 34.463 38.072 C 33.658 39.628, 33 41.969, 33 43.275 C 33 44.581, 34.069 48.792, 35.375 52.633 C 36.682 56.474, 38.545 61.166, 39.516 63.059 C 40.487 64.951, 42.602 68.431, 44.217 70.791 C 45.831 73.151, 50.041 77.464, 53.571 80.376 C 57.101 83.288, 62.354 86.808, 65.245 88.198 C 68.135 89.589, 71.921 90.993, 73.658 91.320 C 75.395 91.646, 78.281 91.493, 80.071 90.980 C 81.861 90.466, 85.066 88.840, 87.194 87.366 C 89.321 85.891, 90.923 84.270, 90.754 83.762 C 90.585 83.255, 86.724 81.236, 82.174 79.277 C 74.861 76.128, 73.623 75.864, 71.496 77.002 C 69.476 78.083, 68.705 78.037, 66.680 76.710 C 65.354 75.841, 60.722 71.236, 56.385 66.477 C 52.048 61.717, 48.153 56.898, 47.729 55.768 C 47.243 54.473, 47.496 52.892, 48.412 51.494 C 49.718 49.500, 49.590 48.378, 47.151 40.460 C 45.658 35.612, 44.001 31.508, 43.468 31.341 C 42.936 31.173, 41.021 31.983, 39.213 33.140 M 76.522 71.976 C 74.747 73.937, 74.787 74.013, 78.387 75.517 C 80.411 76.363, 84.526 78.143, 87.533 79.472 C 93 81.890, 93 81.890, 93 78.890 C 93 76.231, 92.403 75.628, 87.750 73.580 C 84.862 72.310, 81.563 70.979, 80.418 70.621 C 79.004 70.180, 77.754 70.615, 76.522 71.976" stroke="none" fill="#e4f4f2" fill-rule="evenodd"/><path d="M 39.766 19.783 L 16.031 33.500 16.031 64 L 16.030 94.500 40.015 108.315 L 64 122.130 87.985 108.315 L 111.970 94.500 111.970 64 L 111.970 33.500 88.097 19.750 C 74.967 12.188, 64.062 6.015, 63.862 6.033 C 63.663 6.050, 52.820 12.238, 39.766 19.783 M 46.368 31.750 C 46.644 32.712, 47.819 36.763, 48.978 40.750 C 50.333 45.414, 51.598 48, 52.523 48 C 53.315 48, 54.227 46.942, 54.552 45.649 C 54.877 44.355, 54.376 40.643, 53.439 37.399 C 52.502 34.154, 51.232 31.169, 50.617 30.765 C 50.003 30.361, 48.682 30.024, 47.683 30.015 C 46.424 30.005, 46.020 30.538, 46.368 31.750 M 39.213 33.140 C 37.405 34.297, 35.267 36.516, 34.463 38.072 C 33.658 39.628, 33 41.969, 33 43.275 C 33 44.581, 34.069 48.792, 35.375 52.633 C 36.682 56.474, 38.545 61.166, 39.516 63.059 C 40.487 64.951, 42.602 68.431, 44.217 70.791 C 45.831 73.151, 50.041 77.464, 53.571 80.376 C 57.101 83.288, 62.354 86.808, 65.245 88.198 C 68.135 89.589, 71.921 90.993, 73.658 91.320 C 75.395 91.646, 78.281 91.493, 80.071 90.980 C 81.861 90.466, 85.066 88.840, 87.194 87.366 C 89.321 85.891, 90.923 84.270, 90.754 83.762 C 90.585 83.255, 86.724 81.236, 82.174 79.277 C 74.861 76.128, 73.623 75.864, 71.496 77.002 C 69.476 78.083, 68.705 78.037, 66.680 76.710 C 65.354 75.841, 60.722 71.236, 56.385 66.477 C 52.048 61.717, 48.153 56.898, 47.729 55.768 C 47.243 54.473, 47.496 52.892, 48.412 51.494 C 49.718 49.500, 49.590 48.378, 47.151 40.460 C 45.658 35.612, 44.001 31.508, 43.468 31.341 C 42.936 31.173, 41.021 31.983, 39.213 33.140 M 76.522 71.976 C 74.747 73.937, 74.787 74.013, 78.387 75.517 C 80.411 76.363, 84.526 78.143, 87.533 79.472 C 93 81.890, 93 81.890, 93 78.890 C 93 76.231, 92.403 75.628, 87.750 73.580 C 84.862 72.310, 81.563 70.979, 80.418 70.621 C 79.004 70.180, 77.754 70.615, 76.522 71.976" stroke="none" fill="#0ba890" fill-rule="evenodd"/></svg>